<svg width="408" height="500" viewBox="0 0 408 500" fill="none" xmlns="http://www.w3.org/2000/svg">
<path d="M318.591 170.103L147.622 274.882L147.708 274.946C147.708 274.946 147.558 275.031 147.473 275.095C133.042 283.904 123.934 299.275 123.934 316.186V395.716C123.934 396.785 123.913 397.854 123.849 398.901C123.058 414.765 116.281 429.025 105.784 439.543C95.2651 450.062 80.9839 456.817 65.142 457.608L61.9565 457.694C61.4648 457.694 60.9731 457.694 60.4814 457.651C59.5621 457.63 58.6428 457.587 57.7235 457.523C25.4625 455.364 0 428.511 0 395.716V188.168C0.0641372 181.348 0.833783 174.507 2.3517 167.73C7.88887 142.695 23.4742 120.76 45.0243 107.569L45.0884 107.676V107.633L216.014 2.83307C225.079 -2.70411 236.901 0.117928 242.396 9.18265C247.954 18.1832 245.111 30.0058 236.089 35.5644L65.1847 140.322C64.8213 140.536 64.4151 140.771 64.0089 140.963C51.6518 148.895 43.1216 161.295 39.7864 176.025C36.4299 191.183 39.252 207.666 47.5684 221.177C55.8635 234.71 69.204 244.673 84.2335 248.543C99.1775 252.476 114.699 250.146 127.612 242.236V242.15L298.494 137.393C307.538 131.834 319.36 134.678 324.898 143.742C330.413 152.764 327.591 164.587 318.591 170.103Z" fill="#F88C2C"/>
<path d="M123.849 398.901C123.165 414.786 116.43 429.11 105.89 439.65C95.3505 450.168 81.0265 456.903 65.1418 457.608C80.9837 456.817 95.2649 450.061 105.783 439.543C116.281 429.024 123.058 414.765 123.849 398.901Z" fill="#F88C2C"/>
<path d="M407.998 152.615V328.5C407.998 333.802 407.464 339.019 406.459 344.107C402.14 365.828 388.907 385.048 369.601 396.785L205.025 496.796C204.534 497.095 204.021 497.373 203.529 497.651C184.694 505.732 162.994 492.029 162.994 470.799V321.338C163.379 315.309 166.586 309.58 172.123 306.18L343.027 201.466C349.441 197.511 354.893 192.337 359.168 186.287C363.423 180.215 366.501 173.267 368.19 165.699C371.526 150.626 368.703 134.207 360.515 120.738C352.199 107.248 338.858 97.3497 323.914 93.5015C309.077 89.6746 293.556 91.8339 280.686 99.7655L280.6 99.6373L109.718 204.352C100.696 209.91 88.873 207.088 83.3358 198.024C77.7772 188.959 80.6207 177.158 89.6426 171.642L260.568 66.8418L260.654 66.9914C282.204 53.8219 308.863 50.0165 333.449 56.3019C358.377 62.7156 379.585 78.472 393.204 100.685C402.867 116.441 407.891 134.1 407.977 151.995C407.977 152.208 407.977 152.401 407.977 152.615H407.998Z" fill="#F88C2C"/>
</svg>
